<?xml version="1.0" standalone="no"?>
<!DOCTYPE svg PUBLIC "-//W3C//DTD SVG 1.1//EN"
"http://www.w3.org/Graphics/SVG/1.1/DTD/svg11.dtd">

<svg width="384" height="418" viewBox="0 0 384 418"
xmlns="http://www.w3.org/2000/svg"
xmlns:link="http://www.w3.org/1999/xlink">

<desc>Généré par Mocodo 1.6.1 le Sat, 20 Sep 2014 02:22:30</desc>

<rect x="0" y="0" width="384" height="418" fill="none" stroke="none" stroke-width="0"/>

<!-- Association LOCALISATION -->
<line x1="315" y1="89" x2="183" y2="89" stroke="#4C3D30" stroke-width="2"/>
<text x="251" y="105.9" fill="#5C4827" font-family="Verdana" font-size="12">1,1</text>
<line x1="54" y1="89" x2="183" y2="89" stroke="#4C3D30" stroke-width="2"/>
<text x="104" y="105.9" fill="#5C4827" font-family="Verdana" font-size="12">1,N</text>
<g id="association-LOCALISATION">
	<path d="M 222 65 a 14 14 90 0 1 14 14 V 89 h -106 V 79 a 14 14 90 0 1 14 -14" fill="#CE9F6F" stroke="#CE9F6F" stroke-width="0"/>
	<path d="M 236 89 v 10 a 14 14 90 0 1 -14 14 H 144 a 14 14 90 0 1 -14 -14 V 89 H 106" fill="#E2BE9F" stroke="#E2BE9F" stroke-width="0"/>
	<rect x="130" y="65" width="106" height="48" fill="None" rx="14" stroke="#896C39" stroke-width="2"/>
	<line x1="130" y1="89" x2="236" y2="89" stroke="#896C39" stroke-width="1"/>
	<text x="137" y="81.9" fill="#7F5D3B" font-family="Verdana" font-size="12">LOCALISATION</text>
	<text x="137" y="105.9" fill="#7F5D3B" font-family="Verdana" font-size="12"></text>
</g>

<!-- Association INTERVENTION -->
<line x1="315" y1="89" x2="315" y2="249" stroke="#4C3D30" stroke-width="2"/>
<text x="320.0" y="145.9" fill="#5C4827" font-family="Verdana" font-size="12">1,N</text>
<line x1="183" y1="369" x2="315" y2="249" stroke="#4C3D30" stroke-width="2"/>
<text x="230" y="343.172727273" fill="#5C4827" font-family="Verdana" font-size="12">1,N</text>
<g id="association-INTERVENTION">
	<path d="M 361 193 a 14 14 90 0 1 14 14 V 217 h -120 V 207 a 14 14 90 0 1 14 -14" fill="#CE9F6F" stroke="#CE9F6F" stroke-width="0"/>
	<path d="M 375 217 v 74 a 14 14 90 0 1 -14 14 H 269 a 14 14 90 0 1 -14 -14 V 217 H 120" fill="#E2BE9F" stroke="#E2BE9F" stroke-width="0"/>
	<rect x="255" y="193" width="120" height="112" fill="None" rx="14" stroke="#896C39" stroke-width="2"/>
	<line x1="255" y1="217" x2="375" y2="217" stroke="#896C39" stroke-width="1"/>
	<text x="268" y="209.9" fill="#7F5D3B" font-family="Verdana" font-size="12">INTERVENTION</text>
	<text x="262" y="233.9" fill="#7F5D3B" font-family="Verdana" font-size="12">motif</text>
	<text x="262" y="249.9" fill="#7F5D3B" font-family="Verdana" font-size="12">date_echeance</text>
	<text x="262" y="265.9" fill="#7F5D3B" font-family="Verdana" font-size="12">date_rdv</text>
	<text x="262" y="281.9" fill="#7F5D3B" font-family="Verdana" font-size="12">etat_avancement</text>
	<text x="262" y="297.9" fill="#7F5D3B" font-family="Verdana" font-size="12">commentaire</text>
</g>

<!-- Association LOCATION -->
<line x1="315" y1="89" x2="54" y2="249" stroke="#4C3D30" stroke-width="2"/>
<text x="251" y="145.133716475" fill="#5C4827" font-family="Verdana" font-size="12">0,N</text>
<line x1="183" y1="369" x2="54" y2="249" stroke="#4C3D30" stroke-width="2"/>
<text x="115" y="342.179069767" fill="#5C4827" font-family="Verdana" font-size="12">0,N</text>
<g id="association-LOCATION">
	<path d="M 79 225 a 14 14 90 0 1 14 14 V 249 h -78 V 239 a 14 14 90 0 1 14 -14" fill="#CE9F6F" stroke="#CE9F6F" stroke-width="0"/>
	<path d="M 93 249 v 10 a 14 14 90 0 1 -14 14 H 29 a 14 14 90 0 1 -14 -14 V 249 H 78" fill="#E2BE9F" stroke="#E2BE9F" stroke-width="0"/>
	<rect x="15" y="225" width="78" height="48" fill="None" rx="14" stroke="#896C39" stroke-width="2"/>
	<line x1="15" y1="249" x2="93" y2="249" stroke="#896C39" stroke-width="1"/>
	<text x="22" y="241.9" fill="#7F5D3B" font-family="Verdana" font-size="12">LOCATION</text>
	<text x="22" y="265.9" fill="#7F5D3B" font-family="Verdana" font-size="12"></text>
</g>

<!-- Association PROPRIETE -->
<line x1="315" y1="89" x2="183" y2="249" stroke="#4C3D30" stroke-width="2"/>
<text x="282.875" y="145.9" fill="#5C4827" font-family="Verdana" font-size="12">1,N</text>
<line x1="183" y1="369" x2="183" y2="249" stroke="#4C3D30" stroke-width="2"/>
<text x="188.0" y="321.9" fill="#5C4827" font-family="Verdana" font-size="12">1,N</text>
<g id="association-PROPRIETE">
	<path d="M 210 225 a 14 14 90 0 1 14 14 V 249 h -82 V 239 a 14 14 90 0 1 14 -14" fill="#CE9F6F" stroke="#CE9F6F" stroke-width="0"/>
	<path d="M 224 249 v 10 a 14 14 90 0 1 -14 14 H 156 a 14 14 90 0 1 -14 -14 V 249 H 82" fill="#E2BE9F" stroke="#E2BE9F" stroke-width="0"/>
	<rect x="142" y="225" width="82" height="48" fill="None" rx="14" stroke="#896C39" stroke-width="2"/>
	<line x1="142" y1="249" x2="224" y2="249" stroke="#896C39" stroke-width="1"/>
	<text x="149" y="241.9" fill="#7F5D3B" font-family="Verdana" font-size="12">PROPRIETE</text>
	<text x="149" y="265.9" fill="#7F5D3B" font-family="Verdana" font-size="12"></text>
</g>

<!-- Entity PERSONNE -->
<g id="entity-PERSONNE">
	<g id="frame-PERSONNE">
		<rect x="141" y="329" width="84" height="24" fill="#FAA945" stroke="#FAA945" stroke-width="0"/>
		<rect x="141" y="353" width="84" height="56" fill="#FFB94E" stroke="#FFB94E" stroke-width="0"/>
		<rect x="141" y="329" width="84" height="80" fill="None" stroke="#CB7E1F" stroke-width="2"/>
		<line x1="141" y1="353" x2="225" y2="353" stroke="#CB7E1F" stroke-width="1"/>
	</g>
	<text x="150" y="345.9" fill="#645530" font-family="Verdana" font-size="12">PERSONNE</text>
	<text x="146" y="369.9" fill="#645530" font-family="Verdana" font-size="12">personne_id</text>
	<line x1="146" y1="372.0" x2="220" y2="372.0" stroke="#645530" stroke-width="1"/>
	<text x="146" y="385.9" fill="#645530" font-family="Verdana" font-size="12">nom</text>
	<text x="146" y="401.9" fill="#645530" font-family="Verdana" font-size="12">prenom</text>
</g>

<!-- Entity BIEN -->
<g id="entity-BIEN">
	<g id="frame-BIEN">
		<rect x="277" y="49" width="76" height="24" fill="#FAA945" stroke="#FAA945" stroke-width="0"/>
		<rect x="277" y="73" width="76" height="56" fill="#FFB94E" stroke="#FFB94E" stroke-width="0"/>
		<rect x="277" y="49" width="76" height="80" fill="None" stroke="#CB7E1F" stroke-width="2"/>
		<line x1="277" y1="73" x2="353" y2="73" stroke="#CB7E1F" stroke-width="1"/>
	</g>
	<text x="300" y="65.9" fill="#645530" font-family="Verdana" font-size="12">BIEN</text>
	<text x="282" y="89.9" fill="#645530" font-family="Verdana" font-size="12">bien_id</text>
	<line x1="282" y1="92.0" x2="326" y2="92.0" stroke="#645530" stroke-width="1"/>
	<text x="282" y="105.9" fill="#645530" font-family="Verdana" font-size="12">type</text>
	<text x="282" y="121.9" fill="#645530" font-family="Verdana" font-size="12">description</text>
</g>

<!-- Entity ADRESSE -->
<g id="entity-ADRESSE">
	<g id="frame-ADRESSE">
		<rect x="9" y="9" width="90" height="24" fill="#FAA945" stroke="#FAA945" stroke-width="0"/>
		<rect x="9" y="33" width="90" height="136" fill="#FFB94E" stroke="#FFB94E" stroke-width="0"/>
		<rect x="9" y="9" width="90" height="160" fill="None" stroke="#CB7E1F" stroke-width="2"/>
		<line x1="9" y1="33" x2="99" y2="33" stroke="#CB7E1F" stroke-width="1"/>
	</g>
	<text x="25" y="25.9" fill="#645530" font-family="Verdana" font-size="12">ADRESSE</text>
	<text x="14" y="49.9" fill="#645530" font-family="Verdana" font-size="12">adresse_id</text>
	<line x1="14" y1="52.0" x2="79" y2="52.0" stroke="#645530" stroke-width="1"/>
	<text x="14" y="65.9" fill="#645530" font-family="Verdana" font-size="12">numero</text>
	<text x="14" y="81.9" fill="#645530" font-family="Verdana" font-size="12">rue</text>
	<text x="14" y="97.9" fill="#645530" font-family="Verdana" font-size="12">info</text>
	<text x="14" y="113.9" fill="#645530" font-family="Verdana" font-size="12">ville</text>
	<text x="14" y="129.9" fill="#645530" font-family="Verdana" font-size="12">code_postal</text>
	<text x="14" y="145.9" fill="#645530" font-family="Verdana" font-size="12">commentaire</text>
	<text x="14" y="161.9" fill="#645530" font-family="Verdana" font-size="12">complement</text>
</g>
</svg>